<?xml version="1.0" encoding="utf-8"?>
<!-- Generator: Adobe Illustrator 17.1.0, SVG Export Plug-In . SVG Version: 6.00 Build 0)  -->
<!DOCTYPE svg PUBLIC "-//W3C//DTD SVG 1.1//EN" "http://www.w3.org/Graphics/SVG/1.1/DTD/svg11.dtd">
<svg version="1.1" id="Layer_1" xmlns="http://www.w3.org/2000/svg" xmlns:xlink="http://www.w3.org/1999/xlink" x="0px" y="0px"
	 viewBox="0 0 100 60" enable-background="new 0 0 100 60" xml:space="preserve">
<g>
	<path fill="#D1D3D4" stroke="#000000" stroke-miterlimit="10" d="M18.2,28.3C18.5,0.3,41.8,2.5,49.8,3.5s48.1,11.9,48.1,27.3
		c0,14.9-40.4,25.9-49.4,26.1C37.5,57.2,18,56.4,18.2,28.3z"/>
	<path fill="#D1D3D4" stroke="#000000" stroke-miterlimit="10" d="M78.7,44.7c0,0-5.9,13.1-13.1,7.7c-7.2-5.4,4.5-13.8,4.5-13.8"/>
	<path fill="#D1D3D4" stroke="#000000" stroke-miterlimit="10" d="M70.3,22.6c0,0-10.6-9.7-3.3-14.9c7.3-5.2,11.6,8.6,11.6,8.6"/>
	<ellipse fill="#FFFFFF" stroke="#000000" stroke-miterlimit="10" cx="79.6" cy="24.4" rx="2.8" ry="1.8"/>
	<ellipse stroke="#000000" stroke-miterlimit="10" cx="81" cy="24.4" rx="1.4" ry="0.8"/>
	<ellipse fill="#FFFFFF" stroke="#000000" stroke-miterlimit="10" cx="79.6" cy="37.3" rx="2.8" ry="1.8"/>
	<ellipse stroke="#000000" stroke-miterlimit="10" cx="81" cy="37.3" rx="1.4" ry="0.8"/>
	<path stroke="#000000" stroke-miterlimit="10" d="M85.6,32.8c-0.7-0.3-0.6-4,0-4.3c0.6-0.3,3.4,1,3.4,2.2C89,31.9,86,33,85.6,32.8z
		"/>
	<line fill="none" stroke="#000000" stroke-miterlimit="10" x1="87.1" y1="24.8" x2="84.3" y2="13.8"/>
	<line fill="none" stroke="#000000" stroke-miterlimit="10" x1="90.4" y1="24.8" x2="93.9" y2="15.3"/>
	<line fill="none" stroke="#000000" stroke-miterlimit="10" x1="87.3" y1="34.9" x2="84" y2="45.5"/>
	<line fill="none" stroke="#000000" stroke-miterlimit="10" x1="89" y1="34.7" x2="89" y2="45"/>
	<line fill="none" stroke="#000000" stroke-miterlimit="10" x1="90.1" y1="34.2" x2="94.3" y2="42.9"/>
	<line fill="none" stroke="#000000" stroke-miterlimit="10" x1="89" y1="24.4" x2="89" y2="13.8"/>
	<path fill="#E6E7E8" stroke="#000000" stroke-miterlimit="10" d="M71.6,50.7c0.2-0.8-4.8-4.9-5.6-4.9c-1,0-1.6,3,0.6,5
		C68.4,52.7,71.3,51.9,71.6,50.7z"/>
	<path fill="#E6E7E8" stroke="#000000" stroke-miterlimit="10" d="M66.4,13.5c0.7,0.4,5.9-3.4,6.1-4.3c0.3-1-2.5-2.3-5-0.7
		C65.4,10,65.4,12.9,66.4,13.5z"/>
	<path fill="#D1D3D4" stroke="#000000" stroke-miterlimit="10" d="M18.2,32.2c0,0-4.9-2.2-7.2-2.2c-1.7,0-4.7,2.1-5.2,2.4
		c-1.1,0.7-2.4,1.7-3.3,0.5c-1.1-1.4,0.6-2.6,1.1-2.9c0.5-0.3,5.1-2.7,6.8-3c1.9-0.3,7.9,1.4,7.9,1.4"/>
</g>
</svg>
