<?xml version="1.0" encoding="utf-8"?>
<!-- Generator: Adobe Illustrator 17.1.0, SVG Export Plug-In . SVG Version: 6.00 Build 0)  -->
<!DOCTYPE svg PUBLIC "-//W3C//DTD SVG 1.1//EN" "http://www.w3.org/Graphics/SVG/1.1/DTD/svg11.dtd">
<svg version="1.1" id="Layer_1" xmlns="http://www.w3.org/2000/svg" xmlns:xlink="http://www.w3.org/1999/xlink" x="0px" y="0px"
	 viewBox="0 0 165 100" enable-background="new 0 0 165 100" xml:space="preserve">
<g>
	<path fill="#414042" d="M62.6,97.6c-33.8,0-61.1-20.8-61.1-46.4S28.9,4.7,62.6,4.7C77.8,4.7,91.8,9,102.5,16
		c13,8.5,21.3,21.1,21.3,35.2C123.7,76.8,96.4,97.6,62.6,97.6z"/>
	<g>
		<path fill="#A7A9AC" d="M118.7,56.4c3.4-2.8,3.6-7.5,0.5-10.4c-3.2-2.9-6-0.5-6.2,5.2S115.3,59.2,118.7,56.4z"/>
	</g>
	<ellipse fill="#414042" cx="121" cy="50.3" rx="34.5" ry="32.6"/>
	<polygon fill="#6D6E71" points="112.4,18.7 89.8,21.2 107.1,40.8 111,24.7 	"/>
	<polygon fill="#58595B" points="102.6,61.8 87.7,79 113.8,81.5 	"/>
	<circle cx="142.7" cy="40.2" r="2.6"/>
	<circle cx="142.9" cy="59.2" r="2.6"/>
	<path fill="#D1D3D4" d="M151.9,34.4c0,0,9.5,14.7,0.2,30.8C152.1,65.2,136.8,49.6,151.9,34.4z"/>
	<g>
		<path d="M153.2,53c0,0-0.8,1.6-1.8,4.1c-1.1,2.5-2.4,5.8-3.4,9.2c-0.5,1.7-1,3.4-1.3,5.1c-0.3,1.6-0.5,3.2-0.6,4.5
			c0,0.7,0,1.3,0,1.8c0,0.5,0.1,1,0.2,1.4c0.1,0.4,0.2,0.7,0.2,0.9c0.1,0.2,0.1,0.3,0.1,0.3s0-0.1-0.1-0.3c-0.1-0.2-0.2-0.5-0.2-0.9
			c-0.1-0.4-0.2-0.9-0.2-1.4c0-0.5-0.1-1.2-0.1-1.8c0-1.4,0.2-2.9,0.4-4.6c0.3-1.7,0.7-3.4,1.2-5.2c1.9-7,4.8-13.6,4.8-13.6
			L153.2,53z"/>
	</g>
	<g>
		<path d="M154.4,53.6c0,0-0.3,1.8-0.5,4.4c-0.2,2.7-0.5,6.3-0.4,9.8c0,1.8,0.1,3.6,0.3,5.2c0.2,1.7,0.5,3.2,0.8,4.5
			c0.2,0.6,0.4,1.2,0.6,1.7c0.2,0.5,0.4,0.9,0.6,1.3c0.2,0.4,0.4,0.6,0.5,0.8c0.1,0.2,0.2,0.3,0.2,0.3s-0.1-0.1-0.2-0.3
			c-0.1-0.2-0.3-0.4-0.5-0.8c-0.2-0.3-0.4-0.8-0.6-1.3c-0.2-0.5-0.4-1.1-0.6-1.7c-0.4-1.3-0.7-2.8-1-4.5c-0.2-1.7-0.4-3.5-0.5-5.3
			c-0.4-7.2,0.4-14.4,0.4-14.4L154.4,53.6z"/>
	</g>
	<g>
		<path d="M155.8,54c0,0,0.1,1.8,0.3,4.5c0.3,2.7,0.7,6.2,1.5,9.7c0.4,1.8,0.8,3.5,1.3,5.1c0.5,1.6,1.1,3.1,1.7,4.3
			c0.3,0.6,0.6,1.1,0.9,1.6c0.3,0.5,0.6,0.8,0.8,1.1c0.2,0.3,0.5,0.5,0.6,0.7c0.1,0.2,0.2,0.2,0.2,0.2s-0.1-0.1-0.2-0.2
			c-0.2-0.1-0.4-0.4-0.6-0.7c-0.3-0.3-0.6-0.7-0.9-1.1c-0.3-0.5-0.6-1-1-1.6c-0.6-1.2-1.3-2.6-1.8-4.2c-0.6-1.6-1.1-3.3-1.5-5.1
			c-1.7-7-2.3-14.2-2.3-14.2L155.8,54z"/>
	</g>
	<g>
		<path d="M136,34.5c0,0,0.4,0.7,0.9,1.7c0.5,1,1,2.5,1.5,3.9c0.5,1.4,0.9,2.9,1.1,4c0.2,1.1,0.3,1.9,0.3,1.9s-0.4-0.7-0.9-1.7
			c-0.5-1-1-2.5-1.5-3.9c-0.5-1.4-0.9-2.9-1.1-4C136.1,35.3,136,34.5,136,34.5z"/>
	</g>
	<g>
		<path d="M135.6,66.4c0,0,0.1-0.8,0.3-1.9c0.2-1.1,0.6-2.6,1.1-4c0.5-1.4,1-2.9,1.5-3.9c0.5-1,0.9-1.7,0.9-1.7s-0.1,0.8-0.3,1.9
			c-0.2,1.1-0.6,2.6-1.1,4c-0.5,1.4-1,2.9-1.5,3.9C136,65.7,135.6,66.4,135.6,66.4z"/>
	</g>
	<g>
		<path d="M153,48.2c0,0-3-6.6-4.8-13.6c-0.5-1.7-0.9-3.5-1.2-5.2c-0.3-1.7-0.4-3.2-0.4-4.6c0-0.7,0-1.3,0.1-1.8
			c0.1-0.5,0.1-1,0.2-1.4c0.1-0.4,0.2-0.7,0.2-0.9c0.1-0.2,0.1-0.3,0.1-0.3s0,0.1-0.1,0.3c-0.1,0.2-0.2,0.5-0.2,0.9
			c-0.1,0.4-0.1,0.9-0.2,1.4c0,0.5,0,1.2,0,1.8c0.1,1.3,0.3,2.9,0.6,4.5c0.3,1.6,0.8,3.4,1.3,5.1c1,3.4,2.4,6.8,3.4,9.2
			c1.1,2.5,1.8,4.1,1.8,4.1L153,48.2z"/>
	</g>
	<g>
		<path d="M154.2,47.2c0,0-0.8-7.2-0.4-14.4c0.1-1.8,0.2-3.6,0.5-5.3c0.2-1.7,0.6-3.2,1-4.5c0.2-0.6,0.4-1.2,0.6-1.7
			c0.2-0.5,0.4-0.9,0.6-1.3c0.2-0.3,0.4-0.6,0.5-0.8c0.1-0.2,0.2-0.3,0.2-0.3s-0.1,0.1-0.2,0.3c-0.1,0.2-0.3,0.4-0.5,0.8
			c-0.2,0.3-0.4,0.8-0.6,1.3c-0.2,0.5-0.4,1.1-0.6,1.7c-0.4,1.3-0.6,2.8-0.8,4.5c-0.2,1.7-0.3,3.5-0.3,5.2c-0.1,3.6,0.2,7.2,0.4,9.8
			c0.2,2.7,0.5,4.4,0.5,4.4L154.2,47.2z"/>
	</g>
	<g>
		<path d="M155.7,47.9L155.7,47.9C155.7,47.9,155.7,47.9,155.7,47.9c-0.1,0-0.1,0-0.2,0c-0.1,0-0.2-0.2-0.3-0.3c0-0.1,0-0.1,0-0.1
			l0,0c0,0,0,0,0-0.1c0-0.1,0-0.2,0-0.3c0-0.2,0-0.5,0.1-0.9c0.1-0.8,0.2-1.9,0.4-3.3c0.4-2.7,1-6.3,1.8-9.8
			c0.9-3.5,2.1-6.9,3.4-9.3c0.6-1.2,1.3-2.1,1.8-2.7c0.5-0.6,0.9-0.9,0.9-0.9s-0.3,0.3-0.8,0.9c-0.5,0.6-1.1,1.5-1.7,2.7
			c-1.2,2.4-2.3,5.9-3,9.4c-0.7,3.5-1.2,7.1-1.5,9.7c-0.1,1.3-0.2,2.5-0.2,3.2c0,0.4,0,0.7,0,0.9c0,0.1,0,0.2,0,0.2l0,0l0,0
			c0,0,0-0.1,0-0.1c0-0.1-0.2-0.2-0.3-0.2c-0.1,0-0.2,0-0.2,0c0,0,0,0,0,0l0,0L155.7,47.9z"/>
	</g>
	<g>
		<path fill="#EDCBE1" d="M157.4,49.8c-0.2-3.5-2.3-4.5-4.7-2.4c-2.4,2.1-2.3,5,0.3,6.3C155.6,55.1,157.6,53.3,157.4,49.8z"/>
	</g>
	<path fill="#6D6E71" d="M94.8,22.8L108.3,35L94.8,22.8z"/>
	<polygon fill="#EDCBE1" points="111.2,23.8 96,23.7 108.4,35.4 	"/>
	<polygon fill="#EDCBE1" points="105.1,66.2 94.2,76.7 110.9,76.3 	"/>
	<path fill="#4A4B4C" d="M96.1,12.4L77.4,27l2.1-20.7L65.7,42L64.2,4.8l-8.7,40.5l-8.1-39l-7.8,34.5L25.8,15.3l-3.3,25.5L8.4,30
		C6.5,29.7,40.6-12.6,96.1,12.4z"/>
	<path fill="#4A4B4C" d="M96.1,90L77.4,75.3l2.1,20.7L65.7,60.3l-1.5,37.2L55.5,57l-8.1,39l-6.3-39.6L25.8,87.1l-3.3-25.5L8.4,72.4
		C6.5,72.7,40.6,115,96.1,90z"/>
	<path fill="#4A4B4C" d="M143.9,26.9l-18,11.9l4.9-15.7l-11,3.7l5.1-8.7C126.4,17.1,140.5,21.6,143.9,26.9z"/>
	<path fill="#4A4B4C" d="M144.3,73.9l-18-11.9l4.9,15.7l-11-3.7l5.1,8.7C126.8,83.8,140.9,79.3,144.3,73.9z"/>
	<polygon fill="#4A4B4C" points="119.5,18 116.6,23.4 124.9,18.1 	"/>
	<path fill="#4A4B4C" d="M120.9,0"/>
	<polygon fill="#4A4B4C" points="120,82.9 117,77.5 125.4,82.8 	"/>
</g>
</svg>
